<svg width="20" height="20" viewBox="0 0 20 20" fill="none" xmlns="http://www.w3.org/2000/svg">
<path d="M9.09961 1.125H13.1953C13.5718 1.12497 13.8077 1.12541 14.0137 1.1416C16.6004 1.34518 18.6548 3.39959 18.8584 5.98633C18.8746 6.19235 18.875 6.42893 18.875 6.80566V9.67676C18.875 10.2189 18.875 10.5356 18.8516 10.8408C18.7023 12.776 17.8521 14.59 16.4609 15.9434C16.2415 16.1569 15.9986 16.36 15.582 16.707L15.5264 16.7539C15.2014 17.0247 15.011 17.1824 14.8154 17.3262C13.5801 18.234 12.1091 18.7669 10.5791 18.8604C10.3369 18.8751 10.0897 18.875 9.66699 18.875H5.9502C3.28542 18.875 1.125 16.7146 1.125 14.0498V9.10449C1.12499 7.85546 1.12553 6.86962 1.19141 6.07617C1.25877 5.26497 1.39852 4.58538 1.71875 3.96875C2.21922 3.00531 3.00531 2.21922 3.96875 1.71875C4.58539 1.39852 5.26497 1.25878 6.07617 1.19141C6.86965 1.12553 7.85056 1.125 9.09961 1.125ZM9.14453 2.6748C7.85045 2.6748 6.9271 2.67531 6.2041 2.73535C5.49036 2.79463 5.04123 2.90845 4.68262 3.09473C4.00254 3.44808 3.44809 4.00253 3.09473 4.68262C2.90844 5.04122 2.79462 5.49036 2.73535 6.2041C2.6753 6.9271 2.6748 7.85045 2.6748 9.14453V14.0498C2.6748 15.8585 4.14146 17.3252 5.9502 17.3252H8.25C8.78848 17.3252 9.22461 16.8881 9.22461 16.3496V15.8496C9.22482 13.1851 11.3852 11.0255 14.0498 11.0254C15.8585 11.0254 17.3252 9.55874 17.3252 7.75V6.84961C17.3252 6.41742 17.3243 6.24563 17.3135 6.10742C17.1696 4.28104 15.7189 2.83044 13.8926 2.68652C13.7543 2.67565 13.5825 2.67481 13.1504 2.6748H9.14453ZM16.9482 11.6074C16.1412 12.2147 15.1377 12.5752 14.0498 12.5752C12.2413 12.5753 10.7756 14.0411 10.7754 15.8496V16.3496C10.7754 16.6201 10.7329 16.8809 10.6543 17.125L10.5947 17.3086L10.7861 17.2871C11.9099 17.1651 12.9837 16.7486 13.8975 16.0771C14.051 15.9643 14.2045 15.8381 14.5586 15.543C15.013 15.1643 15.2086 15.0006 15.3809 14.833C16.2541 13.9834 16.8625 12.9081 17.1455 11.7373L17.2275 11.3984L16.9482 11.6074Z" fill="#0F1729" stroke="#F8F8F5" stroke-width="0.25"/>
</svg>
