<svg width="20" height="20" viewBox="0 0 20 20" fill="none" xmlns="http://www.w3.org/2000/svg">
<path fill-rule="evenodd" clip-rule="evenodd" d="M6.8 0.25H6.7679C5.95507 0.24999 5.29944 0.24999 4.76853 0.29336C4.2219 0.33803 3.74175 0.43239 3.29754 0.65873C2.59193 1.01825 2.01825 1.59193 1.65873 2.29754C1.43239 2.74175 1.33803 3.2219 1.29336 3.76853C1.24999 4.29944 1.24999 4.95505 1.25 5.76788V5.8V14.2V14.2321C1.24999 15.045 1.24999 15.7006 1.29336 16.2315C1.33803 16.7781 1.43239 17.2582 1.65873 17.7025C2.01825 18.4081 2.59193 18.9817 3.29754 19.3413C3.74175 19.5676 4.2219 19.662 4.76853 19.7066C5.29944 19.75 5.95505 19.75 6.76788 19.75H6.8H13.2H13.2321C14.045 19.75 14.7006 19.75 15.2315 19.7066C15.7781 19.662 16.2582 19.5676 16.7025 19.3413C17.4081 18.9817 17.9818 18.4081 18.3413 17.7025C18.5676 17.2582 18.662 16.7781 18.7066 16.2315C18.75 15.7006 18.75 15.045 18.75 14.2321V14.2V5.8V5.76788C18.75 4.95505 18.75 4.29944 18.7066 3.76853C18.662 3.2219 18.5676 2.74175 18.3413 2.29754C17.9818 1.59193 17.4081 1.01825 16.7025 0.65873C16.2582 0.43239 15.7781 0.33803 15.2315 0.29336C14.7006 0.24999 14.045 0.24999 13.2321 0.25H13.2H6.8ZM3.97852 1.99524C4.17604 1.8946 4.43681 1.82547 4.89068 1.78838C5.35331 1.75058 5.94755 1.75 6.8 1.75H13.2C14.0525 1.75 14.6467 1.75058 15.1093 1.78838C15.5632 1.82547 15.824 1.8946 16.0215 1.99524C16.4448 2.21095 16.789 2.55516 17.0048 2.97852C17.1054 3.17604 17.1745 3.43681 17.2116 3.89068C17.2494 4.35331 17.25 4.94755 17.25 5.8V14.2C17.25 15.0525 17.2494 15.6467 17.2116 16.1093C17.1745 16.5632 17.1054 16.824 17.0048 17.0215C16.789 17.4448 16.4448 17.789 16.0215 18.0048C15.824 18.1054 15.5632 18.1745 15.1093 18.2116C14.6467 18.2494 14.0525 18.25 13.2 18.25H6.8C5.94755 18.25 5.35331 18.2494 4.89068 18.2116C4.43681 18.1745 4.17604 18.1054 3.97852 18.0048C3.55516 17.789 3.21095 17.4448 2.99524 17.0215C2.8946 16.824 2.82547 16.5632 2.78838 16.1093C2.75058 15.6467 2.75 15.0525 2.75 14.2V5.8C2.75 4.94755 2.75058 4.35331 2.78838 3.89068C2.82547 3.43681 2.8946 3.17604 2.99524 2.97852C3.21095 2.55516 3.55516 2.21095 3.97852 1.99524ZM8 15.25C7.58579 15.25 7.25 15.5858 7.25 16C7.25 16.4142 7.58579 16.75 8 16.75H12C12.4142 16.75 12.75 16.4142 12.75 16C12.75 15.5858 12.4142 15.25 12 15.25H8Z" fill="#2C2C2C"/>
</svg>
