<svg width="20" height="20" viewBox="0 0 20 20" fill="none" xmlns="http://www.w3.org/2000/svg">
<path fill-rule="evenodd" clip-rule="evenodd" d="M8.76921 3.04531e-07H8.73629C7.9026 -9.95188e-06 7.23018 -9.95703e-06 6.68565 0.0444721C6.12501 0.0902875 5.63255 0.187067 5.17695 0.419211C4.45324 0.787949 3.86485 1.37634 3.49611 2.10004C3.26397 2.55564 3.16719 3.0481 3.12138 3.60875C3.07689 4.15327 3.07689 4.8257 3.0769 5.65939V5.69231V14.3077V14.3406C3.07689 15.1743 3.07689 15.8468 3.12138 16.3913C3.16719 16.9519 3.26397 17.4443 3.49611 17.9C3.86485 18.6237 4.45324 19.212 5.17695 19.5808C5.63255 19.8129 6.12501 19.9097 6.68565 19.9555C7.23018 20 7.9026 20 8.73629 20H8.76921H11.2308H11.2637C12.0974 20 12.7698 20 13.3143 19.9555C13.875 19.9097 14.3674 19.8129 14.8231 19.5808C15.5468 19.212 16.1351 18.6237 16.5039 17.9C16.736 17.4443 16.8328 16.9519 16.8785 16.3913C16.9231 15.8468 16.9231 15.1744 16.9231 14.3406V14.3077V5.69231V5.65936C16.9231 4.82569 16.9231 4.15327 16.8785 3.60875C16.8328 3.0481 16.736 2.55564 16.5039 2.10004C16.1351 1.37634 15.5468 0.787949 14.8231 0.419211C14.3674 0.187067 13.875 0.0902875 13.3143 0.0444721C12.7698 -9.95703e-06 12.0974 -9.95188e-06 11.2637 3.04531e-07H11.2308H8.76921ZM5.87539 1.78999C6.07797 1.68677 6.34542 1.61587 6.81094 1.57783C7.28543 1.53906 7.89491 1.53846 8.76921 1.53846H11.2308C12.1051 1.53846 12.7145 1.53906 13.189 1.57783C13.6545 1.61587 13.922 1.68677 14.1246 1.78999C14.5588 2.01123 14.9118 2.36427 15.1331 2.79848C15.2363 3.00107 15.3072 3.26852 15.3452 3.73403C15.384 4.20852 15.3846 4.818 15.3846 5.69231V14.3077C15.3846 15.1821 15.384 15.7915 15.3452 16.266C15.3072 16.7315 15.2363 16.999 15.1331 17.2015C14.9118 17.6357 14.5588 17.9887 14.1246 18.2101C13.922 18.3132 13.6545 18.3841 13.189 18.4222C12.7145 18.4609 12.1051 18.4615 11.2308 18.4615H8.76921C7.89491 18.4615 7.28543 18.4609 6.81094 18.4222C6.34542 18.3841 6.07797 18.3132 5.87539 18.2101C5.44117 17.9887 5.08814 17.6357 4.86689 17.2015C4.76367 16.999 4.69277 16.7315 4.65473 16.266C4.61596 15.7915 4.61537 15.1821 4.61537 14.3077V5.69231C4.61537 4.818 4.61596 4.20852 4.65473 3.73403C4.69277 3.26852 4.76367 3.00107 4.86689 2.79848C5.08814 2.36427 5.44117 2.01123 5.87539 1.78999ZM7.9487 15.3846C7.52387 15.3846 7.17947 15.729 7.17947 16.1538C7.17947 16.5787 7.52387 16.9231 7.9487 16.9231H12.0513C12.4761 16.9231 12.8205 16.5787 12.8205 16.1538C12.8205 15.729 12.4761 15.3846 12.0513 15.3846H7.9487Z" fill="#2C2C2C"/>
</svg>
