<svg width="56" height="22" viewBox="0 0 56 22" fill="none" xmlns="http://www.w3.org/2000/svg">
<path d="M26.4124 10.9266V17.2842H24.3845V1.58203H29.7281C31.0981 1.58203 32.249 2.04789 33.1809 2.95222C34.1399 3.85651 34.6333 4.95267 34.6333 6.26802C34.6333 7.61078 34.1399 8.70693 33.1809 9.61126C32.249 10.5156 31.0981 10.954 29.7281 10.954L26.4124 10.9266ZM26.4124 3.50028V8.98096H29.7827C30.5776 8.98096 31.2626 8.70693 31.7835 8.15887C32.3315 7.61077 32.6054 6.98051 32.6054 6.24062C32.6054 5.52813 32.3315 4.87043 31.7835 4.34977C31.2626 3.80171 30.6051 3.52768 29.7827 3.52768L26.4124 3.50028Z" fill="#3C4043"/>
<path d="M39.9229 6.1875C41.4303 6.1875 42.6086 6.59853 43.4581 7.39322C44.3076 8.18795 44.746 9.28407 44.746 10.6817V17.3132H42.8277V15.8062H42.7456C41.9237 17.0392 40.7999 17.6421 39.4024 17.6421C38.224 17.6421 37.2376 17.2861 36.4156 16.6007C35.5932 15.9157 35.2097 15.0113 35.2097 13.9699C35.2097 12.8465 35.6207 11.9696 36.4702 11.3119C37.3196 10.6542 38.4434 10.3254 39.8409 10.3254C41.0467 10.3254 42.0332 10.5446 42.8002 10.9831V10.5172C42.8002 9.80473 42.5262 9.22927 41.9782 8.73601C41.4303 8.24275 40.7724 7.99612 40.0328 7.99612C38.909 7.99612 38.005 8.46198 37.3471 9.42111L35.5658 8.29755C36.5797 6.87256 38.005 6.1875 39.9229 6.1875ZM37.3196 13.9699C37.3196 14.4908 37.539 14.9293 38.005 15.2853C38.4434 15.6417 38.964 15.8062 39.5669 15.8062C40.4163 15.8062 41.1837 15.4773 41.8413 14.8468C42.4991 14.2168 42.8277 13.4768 42.8277 12.6273C42.1977 12.134 41.3207 11.8874 40.1969 11.8874C39.3749 11.8874 38.69 12.0792 38.142 12.4629C37.5936 12.9013 37.3196 13.3946 37.3196 13.9699Z" fill="#3C4043"/>
<path d="M55.7349 6.51709L48.9938 21.9999H46.911L49.4048 16.5742L44.9927 6.51709H47.185L50.3912 14.2449H50.4462L53.57 6.51709H55.7349Z" fill="#3C4043"/>
<path d="M18.3819 9.64134C18.3819 8.98364 18.327 8.35338 18.2175 7.75049H9.74963V11.2307H14.6277C14.4357 12.3817 13.8053 13.3682 12.8189 14.0259V16.2731H15.7237C17.3955 14.6837 18.3819 12.3817 18.3819 9.64134Z" fill="#5280BD"/>
<path d="M12.7916 14.0271C11.9971 14.5751 10.9557 14.904 9.72236 14.904C7.36593 14.904 5.36518 13.3147 4.65273 11.1772H1.66589V13.5065C3.14575 16.4388 6.18754 18.4667 9.72236 18.4667C12.1616 18.4667 14.1894 17.6718 15.6964 16.3018L12.7916 14.0271Z" fill="#36A954"/>
<path d="M4.40669 9.42142C4.40669 8.81856 4.51657 8.2431 4.68104 7.695V5.36572H1.69385C1.09092 6.57148 0.734863 7.96903 0.734863 9.42142C0.734863 10.8738 1.09092 12.244 1.69385 13.4772L4.68104 11.1478C4.48909 10.5998 4.40669 10.0243 4.40669 9.42142Z" fill="#FABC06"/>
<path d="M9.75042 3.99612C11.0658 3.99612 12.2713 4.46198 13.2032 5.33888L15.779 2.76296C14.2171 1.31058 12.1893 0.40625 9.75042 0.40625C6.24271 0.40625 3.17346 2.4341 1.6936 5.36627L4.68079 7.69559C5.39325 5.58551 7.39363 3.99612 9.75042 3.99612Z" fill="#E94435"/>
</svg>
