<svg width="34" height="22" viewBox="0 0 34 22" fill="none" xmlns="http://www.w3.org/2000/svg">
<path d="M10.8905 21.7116C16.6459 21.7116 21.3113 16.9673 21.3113 11.1153C21.3113 5.26312 16.6459 0.519043 10.8905 0.519043C5.1351 0.519043 0.469666 5.26312 0.469666 11.1153C0.469666 16.9673 5.1351 21.7116 10.8905 21.7116Z" fill="#FF2F05"/>
<path d="M23.0488 21.8873C28.8039 21.8873 33.4697 17.1431 33.4697 11.2911C33.4697 5.4389 28.8039 0.694824 23.0488 0.694824C17.2934 0.694824 12.6277 5.4389 12.6277 11.2911C12.6277 17.1431 17.2934 21.8873 23.0488 21.8873Z" fill="#FFBC37"/>
<path fill-rule="evenodd" clip-rule="evenodd" d="M17.1221 2.57568C19.6655 4.50774 21.312 7.59309 21.312 11.0695C21.312 14.6826 19.5335 17.8733 16.8179 19.7858C14.2745 17.8538 12.6277 14.7685 12.6277 11.292C12.6277 7.67895 14.4065 4.48824 17.1221 2.57568Z" fill="#FF8729"/>
</svg>
