<svg width="44" height="15" viewBox="0 0 44 15" fill="none" xmlns="http://www.w3.org/2000/svg">
<path d="M3.70782 2.30035L6.80842 14.0018H10.4077L16.0079 0.450195H12.3568L8.82886 9.65123L7.3791 2.45076L3.70782 2.30035Z" fill="#1A1F71"/>
<path d="M17.3715 0.400879L15.2212 14.0026H18.6221L20.8208 0.400879H17.3715Z" fill="#1A1F71"/>
<path d="M30.8207 3.65166L31.3203 0.802844C30.2623 0.416894 29.1467 0.214064 28.0208 0.203125C26.2198 0.203125 22.3198 1.35283 22.3198 4.70131C22.3198 8.04975 27.1679 8.2021 27.1679 10.0509C27.1679 11.8996 22.8183 11.7025 21.5181 10.5029L20.9706 13.4522C20.9706 13.4522 22.9203 14.2031 24.6695 14.2031C26.4192 14.2031 30.7728 13.8032 30.7728 9.45316C30.7728 5.65155 25.9213 6.40231 25.9213 4.10285C25.9213 4.10285 26.4204 1.80276 30.8212 3.65098L30.8207 3.65166Z" fill="#1A1F71"/>
<path fill-rule="evenodd" clip-rule="evenodd" d="M34.3207 14.0008H30.5706C30.5706 14.0008 35.1475 3.25756 35.6221 2.00069C36.124 0.675329 37.2214 0.550781 37.2214 0.550781H40.2218L43.2045 13.9831H39.954L39.5711 12.05H34.9714L34.3207 14.0008ZM35.9696 9.25044H39.0207L37.8709 4.25001L35.9696 9.25044Z" fill="#1A1F71"/>
<path d="M8.44726 7.76839L7.37752 2.45226C7.37752 2.45226 7.23292 0.455566 5.8101 0.455566H0V0.732522C0 0.732522 5.74555 1.68537 8.44612 7.76901L8.44726 7.76839Z" fill="#1A1F71"/>
</svg>
