<svg width="93" height="40" viewBox="0 0 93 40" fill="none" xmlns="http://www.w3.org/2000/svg">
<path d="M17.8578 5.49746C18.0921 4.45713 19.5745 4.45713 19.8089 5.49745L22.1568 15.9207C22.2417 16.2974 22.5359 16.5916 22.9126 16.6765L33.3359 19.0245C34.3762 19.2588 34.3762 20.7412 33.3359 20.9756L22.9126 23.3235C22.5359 23.4084 22.2417 23.7026 22.1568 24.0793L19.8089 34.5026C19.5745 35.5429 18.0921 35.5429 17.8578 34.5026L15.5098 24.0793C15.425 23.7026 15.1308 23.4084 14.754 23.3235L4.33077 20.9756C3.29044 20.7412 3.29044 19.2588 4.33077 19.0245L14.754 16.6765C15.1308 16.5916 15.425 16.2974 15.5098 15.9207L17.8578 5.49746Z" fill="#6D9CCB"/>
<path d="M45.5244 5.49745C45.7588 4.45713 47.2412 4.45713 47.4756 5.49745L49.8235 15.9207C49.9084 16.2974 50.2026 16.5916 50.5793 16.6765L61.0026 19.0245C62.0429 19.2588 62.0429 20.7412 61.0026 20.9756L50.5793 23.3235C50.2026 23.4084 49.9084 23.7026 49.8235 24.0793L47.4756 34.5026C47.2412 35.5429 45.7588 35.5429 45.5244 34.5026L43.1765 24.0793C43.0916 23.7026 42.7974 23.4084 42.4207 23.3235L31.9974 20.9756C30.9571 20.7412 30.9571 19.2588 31.9974 19.0245L42.4207 16.6765C42.7974 16.5916 43.0916 16.2974 43.1765 15.9207L45.5244 5.49745Z" fill="#055AB0"/>
<path d="M73.1911 5.49745C73.4255 4.45713 74.9079 4.45713 75.1422 5.49745L77.4902 15.9207C77.575 16.2974 77.8692 16.5916 78.246 16.6765L88.6692 19.0245C89.7096 19.2588 89.7096 20.7412 88.6692 20.9756L78.246 23.3235C77.8692 23.4084 77.575 23.7026 77.4902 24.0793L75.1422 34.5026C74.9079 35.5429 73.4255 35.5429 73.1911 34.5026L70.8431 24.0793C70.7583 23.7026 70.4641 23.4084 70.0873 23.3235L59.6641 20.9756C58.6238 20.7412 58.6238 19.2588 59.6641 19.0245L70.0873 16.6765C70.4641 16.5916 70.7583 16.2974 70.8431 15.9207L73.1911 5.49745Z" fill="#6D9CCB"/>
</svg>
