<svg width="65" height="64" viewBox="0 0 65 64" fill="none" xmlns="http://www.w3.org/2000/svg">
<path d="M32.6667 0C24.1897 0 16.4887 3.302 10.7637 8.683L9.66667 7.586V5C9.66667 4.832 9.61567 4.682 9.54267 4.543C9.52867 4.48 9.49367 4.412 9.41367 4.332L5.37467 0.293H5.37367C5.19267 0.111 4.94267 0 4.66667 0C4.11367 0 3.66667 0.447 3.66667 1V3H1.66667C1.11367 3 0.666672 3.447 0.666672 4C0.666672 4.276 0.778672 4.526 0.959672 4.707V4.708L4.95867 8.706L4.96067 8.708L5.00067 8.748C5.08067 8.828 5.14767 8.863 5.21067 8.877C5.34867 8.949 5.49967 9 5.66667 9H8.25267L9.34967 10.097C3.96867 15.822 0.666672 23.523 0.666672 32C0.666672 49.673 14.9937 64 32.6667 64C50.3397 64 64.6667 49.673 64.6667 32C64.6667 14.327 50.3397 0 32.6667 0ZM7.66667 7H6.08167L4.08467 5.004L5.66667 5L5.67867 3.426L7.66667 5.414V7ZM32.6667 62C16.0987 62 2.66667 48.568 2.66667 32C2.66667 24.076 5.74467 16.873 10.7637 11.511L13.5917 14.339C9.29567 18.977 6.66667 25.18 6.66667 32C6.66667 46.359 18.3077 58 32.6667 58C47.0257 58 58.6667 46.359 58.6667 32C58.6667 17.641 47.0257 6 32.6667 6C25.8467 6 19.6437 8.629 15.0057 12.925L12.1777 10.097C17.5407 5.078 24.7417 2 32.6667 2C49.2347 2 62.6667 15.432 62.6667 32C62.6667 48.568 49.2347 62 32.6667 62ZM17.8517 18.599C14.6397 22.146 12.6667 26.837 12.6667 32C12.6667 43.046 21.6207 52 32.6667 52C43.7127 52 52.6667 43.046 52.6667 32C52.6667 20.954 43.7127 12 32.6667 12C27.5037 12 22.8127 13.973 19.2657 17.185L16.4197 14.34C20.6947 10.404 26.3987 8 32.6667 8C45.9217 8 56.6667 18.745 56.6667 32C56.6667 45.255 45.9217 56 32.6667 56C19.4117 56 8.66667 45.255 8.66667 32C8.66667 25.732 11.0717 20.027 15.0057 15.754L17.8517 18.599ZM22.0937 22.841C19.9647 25.297 18.6667 28.494 18.6667 32C18.6667 39.732 24.9347 46 32.6667 46C40.3987 46 46.6667 39.732 46.6667 32C46.6667 24.268 40.3987 18 32.6667 18C29.1607 18 25.9637 19.298 23.5077 21.427L20.6797 18.599C23.8637 15.748 28.0567 14 32.6667 14C42.6077 14 50.6667 22.059 50.6667 32C50.6667 41.941 42.6077 50 32.6667 50C22.7257 50 14.6667 41.941 14.6667 32C14.6667 27.39 16.4147 23.197 19.2657 20.013L22.0937 22.841ZM26.3527 27.1C25.2997 28.455 24.6667 30.151 24.6667 32C24.6667 36.418 28.2487 40 32.6667 40C37.0847 40 40.6667 36.418 40.6667 32C40.6667 27.582 37.0847 24 32.6667 24C30.8177 24 29.1217 24.633 27.7667 25.686L24.9227 22.842C27.0137 21.072 29.7137 20 32.6667 20C39.2937 20 44.6667 25.373 44.6667 32C44.6667 38.627 39.2937 44 32.6667 44C26.0397 44 20.6667 38.627 20.6667 32C20.6667 29.047 21.7387 26.347 23.5087 24.256L26.3527 27.1ZM31.9597 32.707C32.3507 33.098 32.9827 33.098 33.3737 32.707C33.7647 32.316 33.7647 31.684 33.3737 31.293L29.1937 27.113C30.1747 26.415 31.3707 26 32.6667 26C35.9797 26 38.6667 28.687 38.6667 32C38.6667 35.313 35.9797 38 32.6667 38C29.3537 38 26.6667 35.313 26.6667 32C26.6667 30.705 27.0817 29.508 27.7797 28.527L31.9597 32.707Z" fill="#DFA61D"/>
</svg>
