<svg width="66" height="66" viewBox="0 0 66 66" fill="none" xmlns="http://www.w3.org/2000/svg">
<path d="M64.975 26.6C64.8563 22.4046 64.4573 19.7298 63.1133 17.4472C61.2016 14.2007 57.759 12.3941 50.8736 8.78086L44.4736 5.4223C38.8557 2.47411 36.0467 1 33.025 1C30.0032 1 27.1942 2.47411 21.5763 5.4223L15.1763 8.78086C8.29098 12.3941 4.84829 14.2007 2.93664 17.4472C1.02496 20.6936 1.02496 24.7333 1.02496 32.8128V33.1872C1.02496 41.2666 1.02496 45.3066 2.93664 48.553C4.84829 51.7994 8.29098 53.6058 15.1763 57.2192L21.5763 60.5776C27.1942 63.5258 30.0032 65 33.025 65C36.0467 65 38.8557 63.5258 44.4736 60.5776L50.8736 57.2192C57.759 53.6058 61.2016 51.7994 63.1133 48.553C64.4573 46.2701 64.8563 43.5955 64.975 39.4" stroke="#DFA61D" stroke-width="2" stroke-linecap="round"/>
<path d="M61.825 18.6L49.025 25M49.025 25C49.025 25 48.0499 25.4876 47.425 25.8C41.8013 28.6118 33.025 33 33.025 33M49.025 25V36.2M49.025 25L18.625 9M33.025 33L4.22498 18.6M33.025 33V63.4" stroke="#DFA61D" stroke-width="2" stroke-linecap="round"/>
</svg>
