<svg width="18" height="20" viewBox="0 0 18 20" fill="none" xmlns="http://www.w3.org/2000/svg">
<path d="M12.9808 2.46171C13.976 2.46171 14.791 3.29546 14.791 4.32554C14.791 5.35024 13.9787 6.18937 12.9808 6.18937H9.25859L10.4811 4.28251C11.3692 3.02381 11.9412 2.46171 12.9808 2.46171ZM10.8676 6.46908V10.3447H7.05659V6.46908H8.97387L8.97648 6.47177L8.97909 6.46908H9.25859H10.8676ZM10.3217 1.21377C10.8389 2.13628 10.7579 3.06954 10.0527 4.32823L8.97387 5.96883L7.14279 3.17174C6.90509 2.74948 6.84762 2.21965 6.98345 1.71133C7.11928 1.20839 7.43534 0.778073 7.84805 0.533328C8.12755 0.366578 8.43578 0.283203 8.75184 0.283203C8.90857 0.283203 9.06529 0.304719 9.22202 0.347751C9.68959 0.476848 10.0814 0.783452 10.3217 1.21377ZM7.78798 10.6271H10.1154V19.7149H7.78798V10.6271ZM7.51893 4.27444L8.74662 6.18668H5.02698C4.02916 6.18668 3.2168 5.35024 3.2168 4.32285C3.2168 3.29546 4.02655 2.45902 5.02698 2.45902C6.0666 2.46171 6.63604 3.02381 7.51893 4.27444Z" fill="#6D9CCB"/>
<path d="M17.0414 6.46907H11.1406V10.3447H17.0414C17.4201 10.3447 17.7257 10.03 17.7257 9.64001V7.17372C17.7257 6.78643 17.4175 6.46907 17.0414 6.46907ZM15.764 19.7149C16.1402 19.7149 16.4484 19.4002 16.4484 19.0103V10.6271H10.3857V19.7149H15.764ZM6.78363 10.3447V6.46907H0.961254C0.582499 6.46907 0.276883 6.78374 0.276883 7.17372V9.64001C0.276883 10.03 0.582499 10.3447 0.961254 10.3447H6.78363ZM5.02569 6.18936H8.74793L7.52024 4.27712C6.63735 3.0265 6.06791 2.46439 5.02569 2.46439C4.02786 2.46439 3.2155 3.29814 3.2155 4.32822C3.2155 5.35023 4.02525 6.18936 5.02569 6.18936ZM7.51241 19.7149V10.6271H1.5542V19.0103C1.5542 19.4002 1.85982 19.7149 2.23857 19.7149H7.51241ZM7.78668 19.7149H10.1141V10.6271H7.78668V19.7149ZM10.8663 6.46907H8.9778L8.97519 6.47176L8.97257 6.46907H7.05529V10.3447H10.8663V6.46907ZM10.4798 4.27981L9.25729 6.18936H12.9795C13.9747 6.18936 14.7897 5.35292 14.7897 4.32553C14.7897 3.29814 13.9774 2.4617 12.9795 2.4617C11.9399 2.4617 11.3679 3.02381 10.4798 4.27981ZM10.3204 1.21377C10.0801 0.783445 9.68829 0.474151 9.22334 0.345055C9.06661 0.302023 8.90988 0.280506 8.75316 0.280506C8.4397 0.280506 8.12886 0.363881 7.84937 0.530631C7.43666 0.775376 7.12059 1.2057 6.98476 1.70864C6.84893 2.21695 6.9064 2.74679 7.1441 3.16904L8.97519 5.96613L10.054 4.32553C10.7566 3.07222 10.8376 2.13627 10.3204 1.21377ZM9.29386 0.073414C9.82934 0.224027 10.2786 0.579042 10.5581 1.07391C10.9708 1.81622 11.0335 2.57466 10.741 3.46489C11.441 2.58273 12.0261 2.18199 12.9769 2.18199C14.1236 2.18199 15.0588 3.14215 15.0588 4.32553C15.0588 5.12432 14.633 5.81821 14.0035 6.18936H17.0414C17.569 6.18936 18 6.63313 18 7.17641V9.64269C18 10.186 17.569 10.6297 17.0414 10.6297H16.7227V19.0129C16.7227 19.5562 16.2917 20 15.764 20H2.23857C1.71093 20 1.27993 19.5562 1.27993 19.0129V10.6271H0.958642C0.430997 10.6271 0 10.1833 0 9.64001V7.17372C0 6.63044 0.430997 6.18667 0.958642 6.18667H3.99391C3.36439 5.81821 2.94123 5.12163 2.94123 4.32284C2.94123 3.13946 3.87375 2.1793 5.02307 2.1793C5.72312 2.1793 6.22725 2.39984 6.72616 2.87051C6.61123 2.47515 6.60862 2.04752 6.71833 1.63602C6.87505 1.06046 7.23552 0.570973 7.71093 0.285885C8.19417 0.00348659 8.75577 -0.0745091 9.29386 0.073414Z" fill="#055AB0"/>
</svg>
