<svg width="20" height="19" viewBox="0 0 20 19" fill="none" xmlns="http://www.w3.org/2000/svg">
<path opacity="0.4" d="M19.6739 7.93853L18.6939 12.1185C17.8539 15.7285 16.1939 17.1885 13.0739 16.8885C12.5739 16.8485 12.0339 16.7585 11.4539 16.6185L9.77387 16.2185C5.60385 15.2285 4.31385 13.1685 5.29385 8.98853L6.27385 4.79854C6.47385 3.94854 6.71385 3.20854 7.01385 2.59854C8.18387 0.178543 10.1739 -0.471457 13.5139 0.318543L15.1839 0.708543C19.3739 1.68854 20.6539 3.75854 19.6739 7.93853Z" fill="#6D9CCB"/>
<path d="M13.074 16.8886C12.454 17.3086 11.674 17.6586 10.724 17.9686L9.14397 18.4886C5.17401 19.7686 3.08401 18.6986 1.79401 14.7286L0.514013 10.7786C-0.765987 6.80863 0.294013 4.70863 4.26401 3.42863L5.84401 2.90863C6.25401 2.77863 6.64401 2.66863 7.01401 2.59863C6.71401 3.20863 6.47401 3.94863 6.27401 4.79863L5.29401 8.98863C4.31401 13.1686 5.60401 15.2286 9.77397 16.2186L11.454 16.6186C12.034 16.7586 12.574 16.8486 13.074 16.8886Z" fill="#055AB0"/>
<path d="M15.5031 8.00854C15.4431 8.00854 15.3831 7.99854 15.3131 7.98854L10.4631 6.75856C10.0631 6.65856 9.82306 6.24856 9.92306 5.84856C10.0231 5.44856 10.4331 5.20856 10.8331 5.30856L15.6831 6.53856C16.0831 6.63856 16.3231 7.04856 16.2231 7.44856C16.1431 7.77854 15.8331 8.00854 15.5031 8.00854Z" fill="#2C2C2C"/>
<path d="M12.5728 11.3884C12.5128 11.3884 12.4528 11.3784 12.3828 11.3684L9.47282 10.6284C9.07282 10.5284 8.83282 10.1184 8.93282 9.71843C9.03282 9.31843 9.44282 9.07843 9.84282 9.17843L12.7528 9.91843C13.1528 10.0184 13.3928 10.4284 13.2928 10.8284C13.2128 11.1684 12.9128 11.3884 12.5728 11.3884Z" fill="#2C2C2C"/>
</svg>
