<svg width="22" height="22" viewBox="0 0 22 22" fill="none" xmlns="http://www.w3.org/2000/svg">
<path d="M10.2715 0.992187C10.4594 0.232283 11.5406 0.232286 11.7285 0.992187L13.3848 7.70117C13.496 8.15193 13.8481 8.50396 14.2988 8.61523L21.0078 10.2715C21.7677 10.4594 21.7677 11.5406 21.0078 11.7285L14.2988 13.3848C13.8481 13.496 13.496 13.8481 13.3848 14.2988L11.7285 21.0078C11.5406 21.7677 10.4594 21.7677 10.2715 21.0078L8.61523 14.2988C8.50396 13.8481 8.15193 13.496 7.70117 13.3848L0.992188 11.7285C0.232283 11.5406 0.232286 10.4594 0.992188 10.2715L7.70117 8.61523C8.15193 8.50396 8.50396 8.15193 8.61523 7.70117L10.2715 0.992187Z" stroke="#055AB0" stroke-width="0.5"/>
</svg>
