<svg width="20" height="16" viewBox="0 0 20 16" fill="none" xmlns="http://www.w3.org/2000/svg">
<path d="M11.2504 0H0.750024C0.336511 0 0 0.3365 0 0.75V11.75C0 12.1635 0.336511 12.5 0.750024 12.5H11.2504C11.6639 12.5 12.0004 12.1635 12.0004 11.75V0.75C12.0004 0.3365 11.6639 0 11.2504 0ZM11.5004 11.75C11.5004 11.8875 11.3879 12 11.2504 12H0.750024C0.61252 12 0.500016 11.8875 0.500016 11.75V0.75C0.500016 0.6125 0.61252 0.5 0.750024 0.5H11.2504C11.3879 0.5 11.5004 0.6125 11.5004 0.75V11.75Z" fill="#055AB0"/>
<path d="M18.1127 2.9055C17.9832 2.6555 17.7276 2.5 17.4461 2.5H14.25C13.8365 2.5 13.5 2.8365 13.5 3.25V7.25C13.5 7.6635 13.8365 8 14.25 8H17.5001C17.6381 8 17.7501 7.888 17.7501 7.75C17.7501 7.612 17.6381 7.5 17.5001 7.5H14.25C14.1125 7.5 14 7.3875 14 7.25V3.25C14 3.1125 14.1125 3 14.25 3H17.4461C17.5401 3 17.6251 3.052 17.6681 3.1355L19.4727 6.6155C19.4902 6.6495 19.5002 6.689 19.5002 6.729V11.75C19.5002 11.8875 19.3877 12 19.2502 12H13.5C13.362 12 13.25 12.112 13.25 12.25C13.25 12.388 13.362 12.5 13.5 12.5H19.2502C19.6637 12.5 20.0002 12.1635 20.0002 11.75V6.729C20.0002 6.6085 19.9707 6.489 19.9162 6.384L18.1127 2.9055Z" fill="#055AB0"/>
<path d="M10.0012 7.00006H2.50098C2.36298 7.00006 2.25098 7.11206 2.25098 7.25006C2.25098 7.38806 2.36298 7.50006 2.50098 7.50006H10.0012C10.1392 7.50006 10.2512 7.38806 10.2512 7.25006C10.2512 7.11206 10.1392 7.00006 10.0012 7.00006Z" fill="#055AB0"/>
<path d="M18.2511 13.5C18.1131 13.5 18.0011 13.612 18.0011 13.75C18.0011 14.715 17.2161 15.5 16.251 15.5C15.286 15.5 14.501 14.715 14.501 13.75C14.501 13.612 14.389 13.5 14.251 13.5C14.113 13.5 14.001 13.612 14.001 13.75C14.001 14.9905 15.0105 16 16.251 16C17.4916 16 18.5011 14.9905 18.5011 13.75C18.5011 13.612 18.3891 13.5 18.2511 13.5Z" fill="#055AB0"/>
<path d="M5.74965 13.5C5.61165 13.5 5.49964 13.612 5.49964 13.75C5.49964 14.715 4.71462 15.5 3.74958 15.5C2.78455 15.5 1.99953 14.715 1.99953 13.75C1.99953 13.612 1.88752 13.5 1.74952 13.5C1.61152 13.5 1.49951 13.612 1.49951 13.75C1.49951 14.9905 2.50904 16 3.74958 16C4.99012 16 5.99966 14.9905 5.99966 13.75C5.99966 13.612 5.88765 13.5 5.74965 13.5Z" fill="#055AB0"/>
</svg>
